<?xml version="1.0" encoding="UTF-8"?>
<!DOCTYPE svg PUBLIC "-//W3C//DTD SVG 1.1//EN" "http://www.w3.org/Graphics/SVG/1.1/DTD/svg11.dtd">
<!-- Creator: CorelDRAW -->
<svg xmlns="http://www.w3.org/2000/svg" xml:space="preserve" width="2048px" height="2048px" style="shape-rendering:geometricPrecision; text-rendering:geometricPrecision; image-rendering:optimizeQuality; fill-rule:evenodd; clip-rule:evenodd"
viewBox="0 0 2048 2048"
 xmlns:xlink="http://www.w3.org/1999/xlink">
 <defs>
  <style type="text/css">
   <![CDATA[
    .fil2 {fill:none}
    .fil12 {fill:#00B8D4}
    .fil13 {fill:#37474F}
    .fil8 {fill:#455A64}
    .fil6 {fill:#546E7A}
    .fil17 {fill:#6D8591}
    .fil5 {fill:#78909C}
    .fil7 {fill:#80D8FF}
    .fil14 {fill:#BBDEFB}
    .fil1 {fill:#DCE775}
    .fil0 {fill:#F0F4C3}
    .fil3 {fill:#263238;fill-rule:nonzero}
    .fil4 {fill:#37474F;fill-rule:nonzero}
    .fil16 {fill:#553A31;fill-rule:nonzero}
    .fil15 {fill:#5D4037;fill-rule:nonzero}
    .fil18 {fill:#757575;fill-rule:nonzero}
    .fil11 {fill:#7CB342;fill-rule:nonzero}
    .fil9 {fill:#EF5350;fill-rule:nonzero}
    .fil19 {fill:#FF8F00;fill-rule:nonzero}
    .fil10 {fill:#FFAB40;fill-rule:nonzero}
   ]]>
  </style>
   <clipPath id="id0">
    <path d="M1024 -0.0011811c565.539,0 1024,458.462 1024,1024 0,565.539 -458.462,1024 -1024,1024 -565.539,0 -1024,-458.462 -1024,-1024 0,-565.539 458.462,-1024 1024,-1024z"/>
   </clipPath>
 </defs>
 <g id="Layer_x0020_1">
  <metadata id="CorelCorpID_0Corel-Layer"/>
  <path class="fil0" d="M1024 -0.0011811c565.539,0 1024,458.462 1024,1024 0,565.539 -458.462,1024 -1024,1024 -565.539,0 -1024,-458.462 -1024,-1024 0,-565.539 458.462,-1024 1024,-1024z"/>
  <g style="clip-path:url(#id0)">
   <g id="_289376024">
    <g>
     <polygon id="_2886191921" class="fil1" points="1404.94,1043.55 2540.82,2179.44 2540.92,2184.32 2540.91,2189.21 2540.79,2194.08 2540.56,2198.93 2540.22,2203.78 2539.77,2208.61 2539.22,2213.42 2538.56,2218.22 2537.79,2222.99 2536.91,2227.74 2535.94,2232.47 2534.85,2237.17 2533.66,2241.84 2532.37,2246.48 2530.98,2251.09 2529.48,2255.67 2527.89,2260.22 2526.19,2264.72 2524.39,2269.19 2522.5,2273.62 2520.51,2278 2518.41,2282.35 2516.22,2286.64 2513.94,2290.89 2511.56,2295.09 2509.08,2299.24 2506.51,2303.33 2503.85,2307.37 2501.09,2311.36 2498.24,2315.28 2495.3,2319.15 2492.27,2322.95 1356.39,1187.07 1359.42,1183.26 1362.36,1179.4 1365.21,1175.47 1367.97,1171.49 1370.63,1167.45 1373.2,1163.35 1375.68,1159.21 1378.06,1155.01 1380.34,1150.76 1382.53,1146.46 1384.62,1142.12 1386.62,1137.74 1388.51,1133.31 1390.31,1128.84 1392.01,1124.33 1393.6,1119.79 1395.1,1115.21 1396.49,1110.6 1397.78,1105.96 1398.97,1101.29 1400.05,1096.58 1401.03,1091.86 1401.91,1087.11 1402.68,1082.33 1403.34,1077.54 1403.89,1072.73 1404.34,1067.9 1404.68,1063.05 1404.91,1058.19 1405.03,1053.32 1405.04,1048.44 "/>
     <polygon id="_288618736" class="fil1" points="1392.29,1220.72 2528.17,2356.6 2528.17,2356.6 2528.18,2356.6 2528.19,2356.6 2528.19,2356.59 2528.2,2356.59 2528.21,2356.59 2528.21,2356.58 2528.22,2356.58 1392.34,1220.7 1392.33,1220.7 1392.33,1220.7 1392.32,1220.71 1392.31,1220.71 1392.31,1220.71 1392.3,1220.72 1392.29,1220.72 "/>
     <polygon id="_288618664" class="fil1" points="1351.51,645.608 2487.39,1781.49 2487.39,2045.4 1351.51,909.518 "/>
     <polygon id="_288619696" class="fil1" points="1351.51,909.518 2487.39,2045.4 2490.28,2049 2493.1,2052.65 2495.86,2056.34 2498.56,2060.07 2501.19,2063.85 2503.74,2067.67 2506.23,2071.52 2508.65,2075.42 2510.99,2079.36 2513.25,2083.34 2515.44,2087.35 2517.55,2091.41 2519.58,2095.5 2521.53,2099.63 2523.4,2103.79 2525.18,2107.99 2526.87,2112.22 2528.47,2116.49 2529.99,2120.79 2531.41,2125.13 2532.75,2129.49 2533.98,2133.89 2535.12,2138.32 2536.17,2142.77 2537.11,2147.26 2537.96,2151.78 2538.7,2156.32 2539.34,2160.89 2539.87,2165.49 2540.29,2170.11 2540.61,2174.76 2540.82,2179.44 1404.94,1043.55 1404.73,1038.88 1404.41,1034.23 1403.99,1029.61 1403.46,1025.01 1402.82,1020.44 1402.08,1015.89 1401.23,1011.38 1400.29,1006.89 1399.24,1002.43 1398.1,998.005 1396.86,993.609 1395.53,989.244 1394.11,984.91 1392.59,980.609 1390.99,976.341 1389.29,972.108 1387.51,967.909 1385.65,963.746 1383.7,959.618 1381.67,955.527 1379.56,951.472 1377.37,947.456 1375.11,943.478 1372.77,939.54 1370.35,935.642 1367.86,931.783 1365.31,927.966 1362.68,924.19 1359.98,920.456 1357.22,916.766 1354.4,913.12 "/>
     <polygon id="_288619648" class="fil1" points="1396.51,1224.68 2532.39,2360.56 2533.26,2361.47 2534.03,2362.44 2534.68,2363.46 2535.23,2364.53 2535.66,2365.64 2535.99,2366.78 2536.21,2367.94 2536.32,2369.11 2536.32,2370.29 2536.21,2371.46 2536,2372.62 2535.67,2373.76 2535.22,2374.88 2534.67,2375.95 2534.01,2376.98 2533.24,2377.96 1397.35,1242.08 1398.13,1241.1 1398.79,1240.07 1399.34,1238.99 1399.78,1237.88 1400.11,1236.74 1400.33,1235.58 1400.44,1234.4 1400.44,1233.23 1400.33,1232.05 1400.11,1230.89 1399.78,1229.76 1399.35,1228.65 1398.8,1227.58 1398.14,1226.56 1397.38,1225.59 "/>
     <polygon id="_288619552" class="fil1" points="1569.42,1405.7 2705.3,2541.58 2705.3,2541.59 2705.29,2541.59 2705.28,2541.6 2705.27,2541.61 1569.39,1405.73 1569.4,1405.72 1569.41,1405.71 1569.41,1405.7 "/>
     <polygon id="_288619744" class="fil1" points="1397.35,1242.08 2533.24,2377.96 2533.2,2378 2533.16,2378.05 2533.12,2378.09 2533.09,2378.13 2533.05,2378.17 2533.01,2378.21 2532.97,2378.26 2532.93,2378.3 1397.05,1242.41 1397.09,1242.37 1397.13,1242.33 1397.16,1242.29 1397.2,1242.25 1397.24,1242.21 1397.28,1242.16 1397.32,1242.12 "/>
     <polygon id="_288619672" class="fil1" points="1397.05,1242.41 2532.93,2378.3 2532,2379.19 2531.01,2379.96 2529.96,2380.63 2528.87,2381.18 2527.73,2381.61 2526.56,2381.94 2525.38,2382.15 2524.18,2382.24 2522.97,2382.22 2521.77,2382.08 2520.59,2381.83 2519.43,2381.47 2518.3,2380.98 2517.21,2380.38 2516.18,2379.67 2515.2,2378.84 1379.32,1242.96 1380.3,1243.79 1381.33,1244.5 1382.42,1245.1 1383.55,1245.58 1384.71,1245.95 1385.89,1246.2 1387.09,1246.34 1388.29,1246.36 1389.49,1246.26 1390.68,1246.05 1391.85,1245.73 1392.98,1245.3 1394.08,1244.74 1395.13,1244.08 1396.12,1243.3 "/>
     <polygon id="_288619888" class="fil1" points="1379.32,1242.96 2515.2,2378.84 2511.02,2374.92 1375.14,1239.04 "/>
     <polygon id="_288619936" class="fil1" points="1375.14,1239.04 2511.02,2374.92 2474.98,2341.13 1339.09,1205.24 "/>
     <polygon id="_288620008" class="fil1" points="1339.09,1205.24 2474.98,2341.13 2471.21,2344.41 2467.39,2347.62 2463.52,2350.76 2459.59,2353.83 2455.62,2356.83 2451.59,2359.75 2447.51,2362.59 2443.39,2365.35 2439.22,2368.02 2435,2370.62 2430.73,2373.12 2426.42,2375.54 2422.07,2377.87 2417.67,2380.1 2413.23,2382.24 2408.74,2384.28 2404.21,2386.23 2399.65,2388.07 2395.04,2389.81 2390.4,2391.45 2385.72,2392.98 2381,2394.4 2376.24,2395.71 2371.45,2396.91 2366.62,2398 2361.76,2398.96 2356.87,2399.81 2351.94,2400.54 2346.98,2401.15 2341.99,2401.63 2336.98,2401.99 2331.93,2402.22 1196.05,1266.34 1201.09,1266.11 1206.11,1265.75 1211.1,1265.27 1216.06,1264.66 1220.99,1263.93 1225.88,1263.08 1230.74,1262.11 1235.57,1261.03 1240.36,1259.83 1245.11,1258.52 1249.83,1257.1 1254.52,1255.57 1259.16,1253.93 1263.77,1252.19 1268.33,1250.34 1272.86,1248.4 1277.34,1246.36 1281.79,1244.22 1286.19,1241.98 1290.54,1239.66 1294.85,1237.24 1299.12,1234.73 1303.34,1232.14 1307.51,1229.46 1311.63,1226.71 1315.71,1223.87 1319.74,1220.95 1323.71,1217.95 1327.64,1214.88 1331.51,1211.74 1335.33,1208.53 "/>
     <polygon id="_288619384" class="fil1" points="1025.86,1191.9 2161.74,2327.79 2090.82,2327.79 954.936,1191.9 "/>
     <polygon id="_288619504" class="fil1" points="1041.38,1208.03 2177.26,2343.91 2176.23,2342.95 2175.22,2341.98 1039.34,1206.09 1040.35,1207.07 "/>
     <polygon id="_288620536" class="fil1" points="1196.05,1266.34 2331.93,2402.22 2326.58,2402.32 2321.23,2402.3 2315.9,2402.14 2310.59,2401.84 2305.29,2401.42 2300.01,2400.87 2294.75,2400.19 2289.52,2399.38 2284.32,2398.45 2279.14,2397.39 2273.99,2396.2 2268.88,2394.89 2263.8,2393.45 2258.76,2391.9 2253.76,2390.22 2248.81,2388.42 2243.9,2386.5 2239.03,2384.46 2234.22,2382.3 2229.46,2380.03 2224.75,2377.64 2220.1,2375.13 2215.51,2372.51 2210.99,2369.78 2206.52,2366.93 2202.12,2363.97 2197.79,2360.9 2193.53,2357.72 2189.35,2354.43 2185.24,2351.03 2181.21,2347.53 2177.26,2343.91 1041.38,1208.03 1045.33,1211.64 1049.36,1215.15 1053.47,1218.55 1057.65,1221.84 1061.91,1225.02 1066.24,1228.09 1070.64,1231.05 1075.1,1233.9 1079.63,1236.63 1084.22,1239.25 1088.87,1241.76 1093.58,1244.15 1098.34,1246.42 1103.15,1248.58 1108.02,1250.62 1112.93,1252.54 1117.88,1254.34 1122.88,1256.02 1127.92,1257.57 1133,1259.01 1138.11,1260.32 1143.26,1261.5 1148.43,1262.57 1153.64,1263.5 1158.87,1264.31 1164.13,1264.99 1169.41,1265.54 1174.71,1265.96 1180.02,1266.25 1185.35,1266.41 1190.7,1266.44 "/>
     <polygon id="_288620344" class="fil1" points="954.936,1191.9 2090.82,2327.79 2090.82,2412.96 954.936,1277.08 "/>
     <polygon id="_288620176" class="fil1" points="1087.72,1299.83 2223.6,2435.71 2224.83,2437.09 2225.71,2438.51 2226.25,2439.97 2226.43,2441.46 1090.55,1305.58 1090.37,1304.08 1089.83,1302.63 1088.94,1301.21 "/>
     <polygon id="_288620296" class="fil1" points="860.573,1191.9 1996.45,2327.79 1618.24,2327.79 482.357,1191.9 "/>
     <polygon id="_288620320" class="fil1" points="1090.55,1305.58 2226.43,2441.46 2225.38,2445.02 2222.32,2448.35 2217.39,2451.45 2210.72,2454.32 2202.44,2456.96 2192.69,2459.37 2181.6,2461.55 2169.31,2463.51 2155.94,2465.23 2141.64,2466.72 2126.53,2467.98 2110.76,2469.02 2094.44,2469.82 2077.73,2470.39 2060.75,2470.74 2043.64,2470.85 2026.52,2470.74 2009.54,2470.39 1992.83,2469.82 1976.52,2469.02 1960.74,2467.98 1945.64,2466.72 1931.33,2465.23 1917.97,2463.51 1905.67,2461.55 1894.58,2459.37 1884.83,2456.96 1876.55,2454.32 1869.88,2451.45 1864.95,2448.35 729.069,1312.47 734,1315.57 740.672,1318.44 748.951,1321.08 758.702,1323.49 769.791,1325.67 782.086,1327.62 795.452,1329.34 809.755,1330.84 824.861,1332.1 840.636,1333.13 856.947,1333.94 873.66,1334.51 890.64,1334.86 907.755,1334.97 924.87,1334.86 941.851,1334.51 958.563,1333.94 974.874,1333.13 990.649,1332.1 1005.76,1330.84 1020.06,1329.34 1033.42,1327.62 1045.72,1325.67 1056.81,1323.49 1066.56,1321.08 1074.84,1318.44 1081.51,1315.57 1086.44,1312.47 1089.5,1309.14 "/>
     <polygon id="_288620704" class="fil1" points="482.357,1191.9 1618.24,2327.79 1616.36,2327.69 1614.54,2327.41 1612.78,2326.96 1611.09,2326.34 1609.49,2325.57 1607.97,2324.65 1606.56,2323.6 470.679,1187.71 472.093,1188.77 473.606,1189.69 475.211,1190.46 476.898,1191.08 478.657,1191.53 480.48,1191.81 "/>
     <polygon id="_288620128" class="fil1" points="1347.32,633.93 2483.2,1769.81 2484.26,1771.23 2485.18,1772.74 2485.95,1774.34 2486.57,1776.03 2487.02,1777.79 2487.3,1779.61 2487.39,1781.49 1351.51,645.608 1351.42,643.731 1351.14,641.908 1350.68,640.149 1350.07,638.462 1349.29,636.857 1348.38,635.344 "/>
    </g>
    <path id="_289375448" class="fil1" d="M1392.29 1220.72c0.0177165,-0.00826772 0.0366142,-0.0165354 0.0543308,-0.0248032 -0.0177165,0.00826772 -0.0366142,0.0165354 -0.0543308,0.0248032zm177.105 185.006l0.0307087 -0.0318898c-0.00944883,0.0106299 -0.0200788,0.0212599 -0.0307087,0.0318898zm-217.88 -760.12l0 263.91c31.1315,38.1839 51.815,84.0449 53.426,134.035 1.68189,52.1859 -15.7252,103.276 -48.5469,143.516l35.8961 33.6532 4.22363 3.96024c4.93347,4.64292 5.27363,12.3413 0.844489,17.3965 -0.0992127,0.113386 -0.200788,0.22441 -0.304725,0.335433 -4.74685,5.04567 -12.6862,5.2878 -17.7319,0.540945l-4.17756 -3.91772 -36.0449 -33.7937c-39.8859,35.367 -89.0587,59.3516 -143.047,61.0914 -57.1382,1.84134 -112.963,-19.2012 -154.671,-58.304 -5.47678,-5.13544 -10.6536,-10.5189 -15.5197,-16.1268l-70.9205 0 0 85.1764c73.2272,2.81339 135.611,12.3142 135.611,28.5012 0,39.1843 -365.583,39.1843 -365.583,0 0,-16.187 62.3823,-25.6878 135.61,-28.5012l0 -85.1764 -378.216 0c-10.1386,0 -18.3579,-8.2193 -18.3579,-18.3579l0 -121.917 0 -406.022c0,-10.1386 8.2193,-18.3579 18.3579,-18.3579l850.797 0c10.1374,0 18.3567,8.2193 18.3567,18.3579z"/>
   </g>
  </g>
  <path class="fil2" d="M1024 -0.0011811c565.539,0 1024,458.462 1024,1024 0,565.539 -458.462,1024 -1024,1024 -565.539,0 -1024,-458.462 -1024,-1024 0,-565.539 458.462,-1024 1024,-1024z"/>
  <path class="fil3" d="M724.964 1305.58c0,39.1843 365.585,39.1843 365.585,0 0,-39.1855 -365.585,-39.1855 -365.585,0z"/>
  <path class="fil4" d="M954.936 1173.55c0,-10.1374 -21.1252,-18.3567 -47.1815,-18.3567 -26.0563,0 -47.1815,8.2193 -47.1815,18.3567l0 124.423c0,10.1386 21.1252,18.3579 47.1815,18.3579 26.0563,0 47.1815,-8.2193 47.1815,-18.3579l0 -124.423z"/>
  <path class="fil5" d="M482.357 627.25l850.796 0c10.1386,0 18.3579,8.2193 18.3579,18.3567l0 527.94c0,10.1386 -8.2193,18.3579 -18.3579,18.3579l-850.796 0c-10.1386,0 -18.3579,-8.2193 -18.3579,-18.3579l0 -527.94c0,-10.1374 8.2193,-18.3567 18.3579,-18.3567z"/>
  <path class="fil6" d="M1351.51 1051.63l0 121.917c0,10.1386 -8.2193,18.3579 -18.3579,18.3579l-850.796 0c-10.1386,0 -18.3579,-8.2193 -18.3579,-18.3579l0 -121.917 887.512 0z"/>
  <polygon class="fil7" points="1314.8,663.964 500.713,663.964 500.713,1037.87 1314.8,1037.87 "/>
  <polygon class="fil8" points="1024.73,957.889 1024.73,934.165 1197.56,934.165 1197.56,957.889 "/>
  <polygon class="fil8" points="836.483,925.114 947.9,866.803 836.483,808.993 836.483,776.28 977.175,851.259 977.175,881.975 836.483,957.889 "/>
  <polygon class="fil8" points="758.639,957.889 617.946,881.975 617.946,851.259 758.639,776.28 758.639,808.993 647.075,866.803 758.639,925.114 "/>
  <polygon class="fil9" points="1291.52,1110.13 1291.52,1133.4 1314.8,1133.4 1314.8,1110.13 "/>
  <polygon class="fil10" points="1210.02,1133.4 1233.29,1133.4 1233.29,1110.13 1210.02,1110.13 "/>
  <polygon class="fil11" points="1250.71,1110.13 1250.71,1133.4 1273.99,1133.4 1273.99,1110.13 "/>
  <ellipse class="fil12" cx="907.755" cy="1121.77" rx="22.4413" ry="22.4413"/>
  <ellipse class="fil13" cx="907.755" cy="1121.77" rx="19.0882" ry="19.0881"/>
  <ellipse class="fil14" cx="1189.1" cy="1050.5" rx="168.036" ry="168.036"/>
  <path class="fil4" d="M1349.63 1180.73c-5.04449,-4.74685 -12.9839,-4.50473 -17.7319,0.540945 -4.74685,5.04567 -4.50473,12.985 0.540945,17.7319l46.8792 43.9512c5.04567,4.74685 12.985,4.50591 17.7319,-0.539764 4.74685,-5.04567 4.50473,-12.985 -0.540945,-17.7319l-46.8792 -43.9524z"/>
  <path class="fil15" d="M1426.5 1226.4l140.061 109.432c0.614174,0.399213 1.20236,0.858662 1.7563,1.37717l-8.60079 9.17363 8.59607 -9.13583c16.6299,15.5917 18.7075,34.8319 12.398,51.0508 -2.38347,6.12756 -5.98347,11.7602 -10.4469,16.5213 -4.46339,4.75985 -9.8445,8.71064 -15.7914,11.4768 -15.528,7.22481 -34.5201,6.50906 -51.0095,-8.43662 -0.549213,-0.438189 -1.0689,-0.928347 -1.55197,-1.47165l9.38977 -8.36339 -9.3815 8.3504 -119.224 -133.847c-10.4882,-10.239 -11.7165,-22.8024 -7.57442,-33.4512 1.57087,-4.03819 3.93189,-7.73741 6.85158,-10.8508 2.91851,-3.11339 6.45,-5.70355 10.3642,-7.52363 10.435,-4.85552 23.178,-4.37481 34.1634,5.69882z"/>
  <path class="fil16" d="M1569.39 1405.73c-4.28386,4.35237 -9.35198,7.97717 -14.915,10.565 -15.528,7.22481 -34.5201,6.50906 -51.0095,-8.43662 -0.549213,-0.438189 -1.0689,-0.928347 -1.55197,-1.47165l9.38977 -8.36339 -9.3815 8.3504 -119.224 -133.847c-10.4882,-10.239 -11.7165,-22.8024 -7.57442,-33.4512 1.57087,-4.03819 3.93189,-7.73741 6.85158,-10.8508 0.127559,-0.135827 0.256299,-0.271654 0.386221,-0.405118l187.029 177.911z"/>
  <path class="fil15" d="M1426.5 1226.4l140.061 109.432c0.614174,0.399213 1.20236,0.858662 1.7563,1.37717l-8.60079 9.17363 8.59607 -9.13583c16.6299,15.5917 18.7075,34.8319 12.398,51.0508 -2.38347,6.12756 -5.98347,11.7602 -10.4469,16.5213 -0.277559,0.296457 -0.559843,0.589371 -0.844489,0.879922l-0.0318898 0.0318898 -187.029 -177.911 0.197244 -0.201969c2.80158,-2.8441 6.12402,-5.21575 9.78072,-6.91654 10.435,-4.85552 23.178,-4.37481 34.1634,5.69882z"/>
  <path class="fil17" d="M1327.38 884.618l0.292914 -0.312992 9.18072 8.64686c0.359055,0.337796 0.201969,0.179528 0.617717,0.601182l0.372048 0.380315 0.116929 0.127559 0.0897638 0.0956694c38.524,40.9654 65.0575,92.5064 66.8906,149.398 1.70669,52.9252 -16.2225,104.724 -49.9524,145.22l0.311811 0.292914 -8.64686 9.18072c-0.337796,0.359055 -0.179528,0.201969 -0.601182,0.617717l-0.380315 0.372048 -0.126378 0.116929 -0.0956694 0.0897638c-40.9666,38.524 -92.5087,65.0575 -149.399,66.8906 -57.1371,1.84134 -112.962,-19.2 -154.67,-58.304 -41.9162,-39.2988 -66.2623,-93.1713 -68.1119,-150.586 -1.84016,-57.1371 19.2012,-112.962 58.304,-154.669 39.3,-41.9162 93.1725,-66.2623 150.587,-68.1119 52.9252,-1.70551 104.724,16.2225 145.22,49.9536zm-16.0807 278.985c29.7036,-32.0799 45.6473,-74.7662 44.2382,-118.476 -1.39961,-43.4115 -17.5252,-86.6977 -51.4595,-115.096l-0.204331 -0.170079 -0.496063 -0.433465 -0.338977 -0.311811c-0.452363,-0.416929 -0.31063,-0.282284 -0.707481,-0.68504l-0.122835 -0.125197c-32.0799,-29.7024 -74.7674,-45.6449 -118.478,-44.237 -44.2996,1.42795 -85.793,20.2264 -116.111,52.5638 -30.1559,32.165 -46.3678,75.1784 -44.9469,119.243 1.42677,44.2996 20.2264,85.793 52.5626,116.11 32.165,30.1571 75.1796,46.3689 119.243,44.9481 43.4115,-1.39961 86.6977,-17.5252 115.096,-51.4595l0.170079 -0.204331 0.433465 -0.496063 0.311811 -0.338977c0.416929,-0.452363 0.282284,-0.31063 0.68504,-0.707481l0.124016 -0.122835z"/>
  <path class="fil5" d="M1189.1 864.785c102.568,0 185.715,83.1473 185.715,185.715 0,102.567 -83.1473,185.715 -185.715,185.715 -102.567,0 -185.715,-83.1485 -185.715,-185.715 0,-102.568 83.1485,-185.715 185.715,-185.715zm122.195 298.818c29.7036,-32.0799 45.6473,-74.7662 44.2382,-118.476 -1.39961,-43.4115 -17.5252,-86.6977 -51.4595,-115.096l-0.204331 -0.170079 -0.496063 -0.433465 -0.338977 -0.311811c-0.452363,-0.416929 -0.31063,-0.282284 -0.707481,-0.68504l-0.122835 -0.125197c-32.0799,-29.7024 -74.7674,-45.6449 -118.478,-44.237 -44.2996,1.42795 -85.793,20.2264 -116.111,52.5638 -30.1559,32.165 -46.3678,75.1784 -44.9469,119.243 1.42677,44.2996 20.2264,85.793 52.5626,116.11 32.165,30.1571 75.1796,46.3689 119.243,44.9481 43.4115,-1.39961 86.6977,-17.5252 115.096,-51.4595l0.170079 -0.204331 0.433465 -0.496063 0.311811 -0.338977c0.416929,-0.452363 0.282284,-0.31063 0.68504,-0.707481l0.124016 -0.122835z"/>
  <path class="fil18" d="M1209.45 1059.97c0,9.62953 7.80709,17.4366 17.4366,17.4366 9.62953,0 17.4366,-7.80709 17.4366,-17.4366l0 -61.9961c0,-14.1697 -5.78504,-27.039 -15.1028,-36.3579 -9.31772,-9.31654 -22.1882,-15.1028 -36.3579,-15.1028l-7.51418 0c-14.1697,0 -27.0402,5.78622 -36.3579,15.1039 -9.3189,9.31772 -15.1039,22.1882 -15.1039,36.3567l0 61.9961c0,9.62953 7.80709,17.4366 17.4366,17.4366 9.62953,0 17.4366,-7.80709 17.4366,-17.4366l0 -61.9961c0,-4.54134 1.87323,-8.68583 4.88741,-11.7 3.01418,-3.01418 7.15867,-4.88741 11.7012,-4.88741l7.51418 0c4.54252,0 8.68701,1.87323 11.7012,4.88622 3.01418,3.01536 4.88622,7.15867 4.88622,11.7012l0 61.9961z"/>
  <path class="fil19" d="M1120.7 1042.53l136.799 0c9.63072,0 17.4378,7.80709 17.4378,17.4366l0 77.0823c0,9.62953 -7.80709,17.4366 -17.4378,17.4366l-136.799 0c-9.62953,0 -17.4366,-7.80709 -17.4366,-17.4366l0 -77.0823c0,-9.62953 7.80709,-17.4366 17.4366,-17.4366z"/>
 </g>
</svg>
